HIERARCHY
ROOT hip
{
	OFFSET 0.000000 0.000000 0.000000
	CHANNELS 6 Xposition Yposition Zposition Zrotation Yrotation Xrotation 
	JOINT lhipjoint
	{
		OFFSET 0.000000 0.000000 0.000000
		CHANNELS 3 Zrotation Yrotation Xrotation
		JOINT lfemur
		{
			OFFSET 1.363060 -1.794630 0.839290
			CHANNELS 3 Zrotation Yrotation Xrotation
			JOINT ltibia
			{
				OFFSET 2.448110 -6.726130 0.000000
				CHANNELS 3 Zrotation Yrotation Xrotation
				JOINT lfoot
				{
					OFFSET 2.562200 -7.039590 0.000000
					CHANNELS 3 Zrotation Yrotation Xrotation
					JOINT ltoes
					{
						OFFSET 0.157640 -0.433110 2.322550
						CHANNELS 3 Zrotation Yrotation Xrotation
						End Site
						{
							OFFSET 0.000000 0.000000 0.000000
						}
					}
				}
			}
		}
	}
	JOINT rhipjoint
	{
		OFFSET 0.000000 0.000000 0.000000
		CHANNELS 3 Zrotation Yrotation Xrotation
		JOINT rfemur
		{
			OFFSET -1.305520 -1.794630 0.839290
			CHANNELS 3 Zrotation Yrotation Xrotation
			JOINT rtibia
			{
				OFFSET -2.542530 -6.985550 0.000000
				CHANNELS 3 Zrotation Yrotation Xrotation
				JOINT rfoot
				{
					OFFSET -2.568260 -7.056230 0.000000
					CHANNELS 3 Zrotation Yrotation Xrotation
					JOINT rtoes
					{
						OFFSET -0.164730 -0.452590 2.363150
						CHANNELS 3 Zrotation Yrotation Xrotation
						End Site
						{
							OFFSET 0.000000 0.000000 0.000000
						}
					}
				}
			}
		}
	}
	JOINT lowerback
	{
		OFFSET 0.000000 0.000000 0.000000
		CHANNELS 3 Zrotation Yrotation Xrotation
		JOINT upperback
		{
			OFFSET 0.028270 2.035590 -0.193380
			CHANNELS 3 Zrotation Yrotation Xrotation
			JOINT thorax
			{
				OFFSET 0.056720 2.048850 -0.042750
				CHANNELS 3 Zrotation Yrotation Xrotation
				JOINT lowerneck
				{
					OFFSET 0.000000 0.000000 0.000000
					CHANNELS 3 Zrotation Yrotation Xrotation
					JOINT upperneck
					{
						OFFSET -0.054170 1.746240 0.172020
						CHANNELS 3 Zrotation Yrotation Xrotation
						JOINT head
						{
							OFFSET 0.104070 1.761360 -0.123970
							CHANNELS 3 Zrotation Yrotation Xrotation
							End Site
							{
								OFFSET 0.000000 0.000000 0.000000
							}
						}
					}
				}
				JOINT lclavicle
				{
					OFFSET 0.000000 0.000000 0.000000
					CHANNELS 3 Zrotation Yrotation Xrotation
					JOINT lhumerus
					{
						OFFSET 3.362410 1.200890 -0.311210
						CHANNELS 3 Zrotation Yrotation Xrotation
						JOINT lradius
						{
							OFFSET 4.983000 -0.000000 -0.000000
							CHANNELS 3 Zrotation Yrotation Xrotation
							JOINT lwrist
							{
								OFFSET 3.483560 -0.000000 -0.000000
								CHANNELS 3 Zrotation Yrotation Xrotation
								JOINT lhand
								{
									OFFSET 0.000000 0.000000 0.000000
									CHANNELS 3 Zrotation Yrotation Xrotation
									JOINT lfingers
									{
										OFFSET 0.715260 -0.000000 -0.000000
										CHANNELS 3 Zrotation Yrotation Xrotation
										End Site
										{
											OFFSET 0.000000 0.000000 0.000000
										}
									}
								}
								JOINT lthumb
								{
									OFFSET 0.000000 0.000000 0.000000
									CHANNELS 3 Zrotation Yrotation Xrotation
									End Site
									{
										OFFSET 0.000000 0.000000 0.000000
									}
								}
							}
						}
					}
				}
				JOINT rclavicle
				{
					OFFSET 0.000000 0.000000 0.000000
					CHANNELS 3 Zrotation Yrotation Xrotation
					JOINT rhumerus
					{
						OFFSET -3.136600 1.374050 -0.404650
						CHANNELS 3 Zrotation Yrotation Xrotation
						JOINT rradius
						{
							OFFSET -5.241900 -0.000000 -0.000000
							CHANNELS 3 Zrotation Yrotation Xrotation
							JOINT rwrist
							{
								OFFSET -3.444170 -0.000000 -0.000000
								CHANNELS 3 Zrotation Yrotation Xrotation
								JOINT rhand
								{
									OFFSET 0.000000 0.000000 0.000000
									CHANNELS 3 Zrotation Yrotation Xrotation
									JOINT rfingers
									{
										OFFSET -0.622530 -0.000000 -0.000000
										CHANNELS 3 Zrotation Yrotation Xrotation
										End Site
										{
											OFFSET 0.000000 0.000000 0.000000
										}
									}
								}
								JOINT rthumb
								{
									OFFSET 0.000000 0.000000 0.000000
									CHANNELS 3 Zrotation Yrotation Xrotation
									End Site
									{
										OFFSET 0.000000 0.000000 0.000000
									}
								}
							}
						}
					}
				}
			}
		}
	}
}
MOTION
Frames: 9
Frame Time: 0.008333
-13.716433 19.134007 -1.512439 -4.078713 -84.204933 -2.581143 6.559384 1.863594 -0.039974 -21.651577 0.576895 -19.927397 1.771120 9.538138 27.009926 2.072965 1.377360 20.336290 0.935600 -6.161300 -17.253000 -13.933351 -3.061779 -6.480843 30.609738 -9.499851 9.108762 -2.367867 -7.312043 24.396644 -3.945606 15.763099 7.340359 -0.010100 0.648900 -1.783300 3.167977 3.055596 4.518107 0.379595 3.576122 -1.050638 -1.266890 2.128513 11.569312 2.490647 -4.324282 -9.896073 1.877371 -5.604648 16.657743 -2.055100 -2.254600 4.300400 0.908031 0.226850 3.469510 -79.249403 10.340459 11.432308 -5.874166 -25.319059 -1.143966 -0.021403 0.932890 43.879079 7.806722 -5.536506 -0.919500 -7.125000 0.000000 0.000000 -13.433300 23.745900 7.075700 0.869886 1.954925 5.234955 73.802861 12.262658 33.691798 -24.075372 41.842903 -6.006044 0.724855 -3.725820 -8.537468 -10.133025 3.845624 -1.399700 7.125000 0.000000 0.000000 11.962400 -22.210300 6.696400 
-13.843506 19.135400 -1.493532 -5.138401 -84.164931 -1.537949 6.505814 1.805719 -0.005759 -21.477614 0.559951 -20.285406 1.436441 9.020044 25.528997 2.494835 0.210717 21.213386 0.898300 -6.040400 -16.901700 -13.914013 -3.034162 -6.553169 30.499407 -9.933343 9.835698 -2.256591 -7.112423 23.807210 -3.959969 15.887654 7.447494 -0.009400 0.627500 -1.724300 3.130959 3.108609 4.476926 0.365812 3.655424 -1.046501 -1.250795 2.164837 11.610657 2.385830 -4.406195 -9.878204 1.874121 -5.715831 16.693096 -1.991100 -2.320600 4.313700 0.845587 0.233536 3.472028 -79.189918 10.423739 11.437098 -5.886858 -25.266380 -1.140032 -0.022982 0.929309 43.733331 7.796665 -5.484750 -0.910100 -7.125000 0.000000 0.000000 -13.447800 23.798700 7.066800 0.938408 1.906087 5.240579 73.477498 12.581559 34.099497 -25.042571 42.490893 -6.304221 0.777227 -3.722678 -9.008898 -9.849453 3.715448 -1.340900 7.125000 0.000000 0.000000 12.161100 -22.343900 6.774700 
-13.969883 19.128434 -1.473232 -6.146330 -84.143465 -0.542820 6.454353 1.746842 0.024676 -21.295245 0.510256 -20.587098 1.146564 8.532468 24.156464 2.841860 -0.734130 22.061186 0.764000 -5.581600 -15.575200 -13.890953 -3.007936 -6.615976 30.365483 -10.333504 10.504904 -2.159148 -6.940327 23.304393 -3.980522 16.081038 7.589807 -0.007700 0.568100 -1.561200 3.100546 3.176645 4.429488 0.346376 3.751835 -1.042951 -1.297153 2.217652 11.649579 2.338365 -4.486931 -9.857641 1.879498 -5.830055 16.718296 -1.934900 -2.385400 4.316400 0.786322 0.250368 3.477045 -79.102425 10.420948 11.224626 -5.971629 -25.068329 -1.126430 -0.024059 0.912887 43.814588 7.841889 -5.478343 -0.911000 -7.125000 0.000000 0.000000 -13.423900 23.817700 7.047500 0.995028 1.856398 5.246050 73.233349 12.898626 34.377031 -25.966286 43.118526 -6.605426 0.818212 -3.723606 -9.282137 -9.602699 3.635403 -1.297400 7.125000 0.000000 0.000000 12.328900 -22.423800 6.849400 
-14.096458 19.111617 -1.451937 -7.406241 -84.091434 0.663180 6.406124 1.681152 0.043463 -21.069581 0.379045 -20.754611 0.902651 8.069535 22.870961 3.094185 -1.397055 22.786465 0.579600 -4.874800 -13.551900 -13.865013 -2.991446 -6.665248 30.250792 -10.721400 11.142974 -2.080858 -6.816380 22.941625 -4.004235 16.292574 7.700893 -0.006800 0.533700 -1.466600 3.115849 3.236333 4.415024 0.327912 3.835032 -1.037798 -1.380303 2.267879 11.689984 2.322534 -4.575106 -9.845780 1.870605 -5.955028 16.760107 -1.895800 -2.453300 4.336000 0.719931 0.270163 3.480596 -78.968004 10.394169 11.006456 -6.062872 -24.831056 -1.107724 -0.030313 0.889076 43.908767 7.853015 -5.579546 -0.922700 -7.125000 0.000000 0.000000 -13.416600 23.740400 7.068100 1.057778 1.808640 5.250515 72.969238 13.195711 34.672204 -26.931885 43.771750 -6.936342 0.859798 -3.727719 -9.588055 -9.412199 3.543461 -1.260600 7.125000 0.000000 0.000000 12.458200 -22.509300 6.899700 
-14.223532 19.092512 -1.429349 -8.746493 -84.009660 1.905881 6.354112 1.616425 0.049057 -20.861809 0.363558 -20.854055 0.699107 7.635500 21.677986 3.273949 -1.764880 23.593269 0.445200 -4.281000 -11.868500 -13.833001 -2.976097 -6.709118 30.144172 -11.080339 11.770068 -2.023079 -6.739128 22.716250 -4.027325 16.474262 7.730666 -0.006100 0.504100 -1.385000 3.126696 3.276150 4.429680 0.314357 3.892318 -1.027206 -1.410811 2.300014 11.759496 2.243221 -4.653408 -9.858707 1.879800 -6.066516 16.789453 -1.825300 -2.519300 4.354800 0.654159 0.292210 3.488208 -78.889268 10.344265 10.770078 -6.143868 -24.635101 -1.093822 -0.033799 0.870531 44.033627 7.891901 -5.648111 -0.933700 -7.125000 0.000000 0.000000 -13.390200 23.689300 7.069700 1.120234 1.744694 5.255127 72.681704 13.544943 34.909621 -27.891235 44.404458 -7.275349 0.897745 -3.722421 -9.811155 -9.183757 3.454960 -1.218600 7.125000 0.000000 0.000000 12.613400 -22.602500 6.962300 
-14.350804 19.070620 -1.406462 -9.547754 -83.965075 2.611869 6.311488 1.575032 0.054703 -20.811905 0.606791 -21.042676 0.533430 7.253772 20.635463 3.412181 -2.051131 24.213633 0.408000 -4.100400 -11.359400 -13.791201 -2.944205 -6.757677 29.953169 -11.434542 12.355876 -1.979523 -6.684483 22.568795 -4.056762 16.730794 7.770935 -0.005000 0.458900 -1.260800 3.070521 3.328178 4.432730 0.297519 3.968516 -1.015596 -1.421726 2.338447 11.837191 2.172981 -4.733386 -9.875012 1.878867 -6.178793 16.826497 -1.771800 -2.583600 4.377300 0.590200 0.321816 3.494544 -78.798598 10.283516 10.625371 -6.204739 -24.483083 -1.082042 -0.038244 0.856131 44.034541 7.885449 -5.712581 -0.939800 -7.125000 0.000000 0.000000 -13.395200 23.639300 7.088400 1.186267 1.682188 5.259773 72.383260 13.909433 35.096041 -28.834302 45.012575 -7.623994 0.934970 -3.714433 -10.018641 -8.980660 3.349277 -1.177500 7.125000 0.000000 0.000000 12.751500 -22.714000 7.008900 
-14.477777 19.048528 -1.382181 -10.648318 -83.873970 3.551819 6.277586 1.530622 0.047254 -20.814844 1.039223 -21.228674 0.409320 6.940231 19.819884 3.534437 -2.380856 24.618344 0.441900 -4.265600 -11.825000 -13.745367 -2.918879 -6.799646 29.788369 -11.780601 13.019898 -1.933969 -6.633387 22.428366 -4.084893 16.964752 7.787349 -0.006100 0.502600 -1.381000 3.076809 3.364302 4.507198 0.281420 4.020301 -1.002132 -1.493902 2.372171 11.903369 2.127640 -4.809482 -9.891681 1.887805 -6.291516 16.863508 -1.710400 -2.648000 4.406600 0.509965 0.347814 3.500690 -78.645932 10.203673 10.568147 -6.225714 -24.339679 -1.070545 -0.046265 0.839995 44.000921 7.849495 -5.801964 -0.945800 -7.125000 0.000000 0.000000 -13.419000 23.568800 7.124200 1.249693 1.619741 5.264525 72.105494 14.252047 35.302110 -29.815302 45.650462 -8.005395 0.966710 -3.718499 -10.380882 -8.879606 3.311922 -1.161000 7.125000 0.000000 0.000000 12.822100 -22.742500 7.041000 
-14.604651 19.025940 -1.357006 -12.134831 -83.759890 4.878028 6.251081 1.479961 0.029636 -20.774608 1.459448 -21.392480 0.328068 6.707587 19.241523 3.618431 -2.620754 24.894653 0.439500 -4.253900 -11.792200 -13.701994 -2.908478 -6.829468 29.671619 -12.139055 13.657106 -1.886269 -6.586520 22.286745 -4.110194 17.166812 7.785064 -0.010000 0.644300 -1.770500 3.112814 3.387741 4.564549 0.272117 4.055601 -0.989248 -1.513326 2.391220 11.982303 2.043858 -4.883692 -9.935097 1.892478 -6.401005 16.916189 -1.648100 -2.712000 4.461600 0.442222 0.368823 3.505806 -78.550032 10.112590 10.429181 -6.268754 -24.195433 -1.059622 -0.052341 0.825916 44.057056 7.829003 -5.884893 -0.953000 -7.125000 0.000000 0.000000 -13.431300 23.502600 7.152200 1.318009 1.553910 5.263743 71.762774 14.600520 35.518375 -30.811291 46.278340 -8.402471 0.991154 -3.714182 -10.805603 -8.761324 3.330274 -1.148400 7.125000 0.000000 0.000000 12.908700 -22.725800 7.096100 
-14.731227 19.006436 -1.332029 -13.621985 -83.648988 6.202001 6.240712 1.434260 0.006862 -20.730065 1.825042 -21.486692 0.288490 6.556635 18.891680 3.649994 -2.781176 24.872673 0.429400 -4.205400 -11.655400 -13.654042 -2.897191 -6.855550 29.549457 -12.480913 14.308770 -1.835551 -6.533164 22.129150 -4.131270 17.351250 7.842985 -0.014300 0.771600 -2.120500 3.150852 3.415760 4.620476 0.261648 4.096209 -0.977510 -1.546923 2.414654 12.045699 1.971102 -4.962096 -9.950099 1.891599 -6.512542 16.957514 -1.590400 -2.777100 4.495100 0.378669 0.387837 3.513750 -78.452064 9.997125 10.223603 -6.328207 -24.016671 -1.047038 -0.057623 0.808164 44.163364 7.843492 -5.992034 -0.967000 -7.125000 0.000000 0.000000 -13.418200 23.414400 7.172900 1.379836 1.493617 5.264835 71.476322 14.906835 35.628139 -31.839953 46.922342 -8.825324 1.007025 -3.708079 -11.091400 -8.596629 3.400758 -1.137300 7.125000 0.000000 0.000000 13.024200 -22.663100 7.182200 
